<svg viewBox="0 0 50 100" xmlns="http://www.w3.org/2000/svg"><path fill="#154273" d="M0 0h50v100H0z"/><path d="M25.904 77.363h-.87V74.95h.87zm3.924-10.638h-.87v-2.414h.87zm-16.115-4.163c-.066 0-.516.002-.516.095 0 .092.21.045.516.096.696.12.97.47 1.46.47.443 0 .896-.301.72-.943-.03-.108-.092-.082-.106-.01-.068.287-.42.452-.792.452-.46 0-.558-.16-1.282-.16zM8.92 64.974c.076.106.897 1.171-.364 1.578-.055.02-.075.073.01.11.93.388 1.382-.327 1.382-.327.468 1.072-.25 1.666-.25 1.666.101.194.546.516 1.222.667.255-.136.616-.399.766-.802 0 0 .182.468.016.915 1.902.172 2.575-1.348 4.04-1.074.042.008.062-.02.062-.064 0-.938-.574-2.652-2.388-3-1.809-.348-1.322-1.091-1.322-1.091.763-.035 1.203.297 1.203.297.14-.228-.057-.475-.057-.475.073-.087.114-.398.114-.398-.86-.001-1.085-.185-1.085-.185-.132-.51.222-1.23 1.498-.46.318-.283.294-.716.294-.716.096-.045.156-.196.156-.261 0-.212-1.02-.784-1.282-.852-.064-.309-.459-.754-1.658-.594-.567.07-.976-.078-.785-.408.032-.056-.07-.067-.122-.012-.132.13-.313.501.183.75.55.279.584.83.588.91.01.117-.131.128-.162.011-.254-.931-1.526-1.132-2.28-.637.045.499.581.828.875.828.169 0 .403-.168.403-.4 0-.113.058-.099.091-.011.125.331-.366 1.016-1.094.6-.741.74-.445 1.655-.371 1.992.132.605-.163 1.19-.708.918-.028-.014-.056-.024-.056.04 0 .381.496.811 1.08.485zm4.083-3.738c-.347.386-.91.297-1.045-.34.71-.037 1.016.035 1.045.34zm22.069 1.486c-.372 0-.723-.165-.791-.451-.015-.073-.078-.099-.106.009-.177.642.276.943.72.943.49 0 .764-.35 1.46-.47.306-.051.515-.004.515-.097 0-.092-.45-.094-.516-.094-.724 0-.823.16-1.282.16zm7.155 1.768c0-.065-.027-.055-.055-.041-.545.273-.84-.313-.708-.918.074-.337.37-1.251-.371-1.993-.73.417-1.22-.268-1.095-.6.034-.087.091-.101.091.011 0 .232.234.4.403.4.294 0 .83-.328.875-.827-.753-.495-2.025-.294-2.279.637-.032.117-.172.106-.163-.01.005-.08.038-.632.588-.91.496-.25.315-.62.184-.751-.054-.055-.155-.044-.123.011.192.33-.217.48-.784.41-1.2-.161-1.595.284-1.658.593-.263.068-1.282.64-1.282.852 0 .065.06.216.156.261 0 0-.024.433.294.717 1.275-.771 1.629-.05 1.498.459 0 0-.226.184-1.085.185 0 0 .04.31.114.398 0 0-.197.247-.057.475 0 0 .44-.332 1.203-.297 0 0 .487.743-1.323 1.092-1.813.347-2.387 2.061-2.387 2.999 0 .045.019.072.061.064 1.466-.274 2.138 1.246 4.04 1.074-.165-.447.017-.915.017-.915.15.403.51.666.766.802.675-.151 1.12-.473 1.221-.667 0 0-.717-.594-.249-1.666 0 0 .451.715 1.382.326.084-.036.065-.09.01-.109-1.262-.407-.44-1.472-.364-1.578.585.326 1.08-.104 1.08-.484zm-4.118-3.594c-.136.637-.7.726-1.045.34.029-.305.334-.377 1.045-.34zM24.7 50.212c0 .16.07.301.124.38.113.159.095.246.042.3-.052.052-.14.07-.3-.042a.68.68 0 0 0-.379-.125c-.274 0-.41.18-.41.335 0 .154.136.334.41.334.16 0 .3-.069.379-.125.16-.111.248-.094.3-.04.053.051-.024.603-.086 1.037-.454.095-.673.459-.673.67 0 .547.584.863.928 1.046.343-.183.927-.499.927-1.045 0-.212-.219-.576-.673-.671-.062-.434-.139-.986-.086-1.038.052-.053.14-.07.3.041a.68.68 0 0 0 .379.125c.274 0 .41-.18.41-.334 0-.154-.136-.335-.41-.335a.68.68 0 0 0-.379.125c-.16.112-.248.094-.3.041-.053-.053-.07-.14.041-.3a.687.687 0 0 0 .125-.379c0-.274-.18-.411-.334-.411-.155 0-.335.137-.335.411zm.335 4.06a.666.666 0 1 0-.002 1.332.666.666 0 0 0 .002-1.331zm0 6.411c2.668 0 4.174.51 4.174.51.014-1.348.005-2.1.778-1.987-.422-1.133 1.398-1.577 1.398-3.054 0-.972-.687-1.082-.89-1.082-.605 0-.51.392-1.024.392-.063 0-.13-.016-.13.03 0 .17.145.461.38.461.317 0 .323-.316.557-.316.102 0 .248.083.248.406 0 .628-.411 1.324-.897 1.863-.111-.154-.263-.25-.445-.25-.287 0-.54.3-.54.67a.82.82 0 0 0 .072.352c-.161.09-.305.142-.413.142-.22 0-.55-.09-.55-.57 0-1.068 1.434-2.01 1.434-3.366 0-.647-.432-1.292-1.335-1.292-.97 0-.789.885-1.627.885-.039 0-.07.012-.07.046 0 .056.146.545.58.545.464 0 .595-.802 1.005-.802.154 0 .384.09.384.634 0 .423-.21 1.106-.511 1.762a.604.604 0 0 0-.423-.189c-.36 0-.617.348-.617.763a.94.94 0 0 0 .282.683c-.212.27-.428.49-.721.49-.58 0-.835-.328-.835-.686 0-.388.707-.528.707-1.133 0-.411-.268-.643-.525-.643-.277 0-.418.183-.446.183-.029 0-.17-.183-.447-.183-.258 0-.525.232-.525.643 0 .605.707.745.707 1.133 0 .358-.255.687-.834.687-.294 0-.51-.22-.722-.491a.941.941 0 0 0 .282-.683c0-.415-.258-.763-.618-.763a.604.604 0 0 0-.422.189c-.3-.656-.51-1.339-.51-1.762 0-.544.23-.634.383-.634.41 0 .54.802 1.006.802.434 0 .579-.49.579-.545 0-.034-.031-.046-.07-.046-.838 0-.658-.885-1.626-.885-.903 0-1.336.645-1.336 1.292 0 1.356 1.434 2.298 1.434 3.367 0 .48-.33.569-.549.569-.109 0-.252-.052-.415-.142a.82.82 0 0 0 .072-.352c0-.37-.252-.67-.54-.67-.18 0-.332.096-.444.25-.486-.539-.896-1.235-.896-1.863 0-.323.146-.406.246-.406.235 0 .242.316.558.316.235 0 .38-.29.38-.46 0-.047-.066-.03-.13-.03-.514 0-.419-.393-1.023-.393-.204 0-.89.11-.89 1.082 0 1.477 1.82 1.921 1.397 3.054.774-.113.764.64.778 1.987 0 0 1.506-.51 4.175-.51zm-4.893 1.991a19.29 19.29 0 0 0-1.481.381c.012-.32.134-.618.42-.684.036-.01.045-.059.012-.081-.648-.43-.995.394-1.004.42-.23-.017-.58.055-.58.365 0 .927-2.12 1.442-2.612 1.518.866.334 1.227 1.426 1.227 1.426.629-.63 1.364-1.184 1.526-1.184.167 0 .23.21.244.335.004.04.043.054.068.018.33-.49.172-.602.145-.747-.021-.114.012-.543.492-.493v6.188l-.247.05c-.113.02-1.018-.75-2.054-1.467-1.036-.716-1.592-.288-2.774.352-1.545.837-3.11.078-3.11.078-1.332.953-1.786 3.706-1.786 3.706a3.08 3.08 0 0 1-1.123.234c-1.017 0-1.204-.616-1.204-.984 0-1.571 1.966-2.245 1.966-3.793 0-.375-.172-1.903-2.063-1.903l-1.69-.003c-.709 0-.886-.51-.984-.704-.038-.076-.11-.032-.083.027.055.13-.081.328-.081.72 0 .63.37 1.007 1.057 1.007.313 0 .607-.088.703-.145.064-.037.098.024.068.058-.3.35-.324 1.005-.2 1.165.028.038.065.027.072-.003.166-.665.788-1.292 1.626-1.292 1.025 0 1.02.872 1.02 1.082 0 1.26-2.213 2.185-2.213 3.917 0 1.758 1.856 2.135 2.932 1.856-.063 1.76-2.077 2.359-2.138 1.1-.004-.06-.048-.074-.08.005-.255.622-.155 1.169.63 1.343.052.013.027.042-.022.075-.776.494-.355 2.433-.317 3.003.058.823-.76.725-.826.7-.034-.013-.067.005-.015.07.58.71 1.296.06 1.296.06.541.17.206.632-.155.873-.057.039-.052.076.01.08.08.005.918.076 1.067-.592.37.443.916.282 1.03.223.162-.082.947-.367 1.025.515.004.064.042.023.067-.01.593-.746-.042-1.206-.395-1.26a.598.598 0 0 1 .931.11c.029.038.056.046.061-.029.05-.945-.72-1.031-1.218-.62-.023-.097-.19-.63.563-.61.018 0 .054-.027.016-.064-.584-.617-1.064-.056-1.175.078-.26.306-.908.185-.967.177.203-3.287 3.098-2.123 3.496-3.72.019-.085.057-.053.065-.023.11.39 1.092.445 1.272-.323.01-.048.004-.085-.03-.05-.838.838-2.726-1.78-.15-3.906 2.2-1.813 4.17-.802 4.92-.205.04.262-.117.347-.217.379-.036.01-.047.044.01.066.21.08.505.055.643-.142.473.33.068.746-.123.861-.048.03-.027.063.013.07.434.079.79-.364.808-.619l.073.041v1.868c0 2.66 3.068 3.028 6.436 5.283 3.366-2.255 6.434-2.623 6.434-5.283V71.75l.074-.04c.017.254.374.697.808.619.04-.008.06-.04.013-.07-.19-.116-.595-.531-.123-.862.138.197.433.222.643.142.056-.022.046-.055.01-.066-.1-.032-.257-.117-.217-.38.75-.596 2.72-1.607 4.92.206 2.576 2.127.688 4.744-.15 3.907-.035-.036-.04.001-.03.049.18.768 1.163.713 1.272.323.008-.03.046-.062.065.023.398 1.597 3.293.432 3.496 3.72-.06.008-.707.13-.967-.177-.111-.134-.591-.695-1.175-.078-.038.037-.002.064.016.064.752-.02.586.513.563.61-.498-.411-1.268-.325-1.218.62.004.075.032.067.06.03a.598.598 0 0 1 .932-.112c-.353.055-.988.515-.395 1.26.025.034.062.075.068.011.077-.882.862-.597 1.024-.515.114.059.659.22 1.03-.223.149.668.987.597 1.068.592.06-.004.065-.041.01-.08-.362-.24-.697-.703-.156-.872 0 0 .716.65 1.296-.061.051-.065.019-.083-.015-.07-.067.025-.885.123-.826-.7.038-.57.459-2.51-.317-3.003-.05-.033-.075-.062-.021-.075.784-.174.885-.72.63-1.343-.033-.08-.077-.065-.081-.005-.061 1.259-2.075.66-2.138-1.1 1.075.279 2.932-.098 2.932-1.856 0-1.732-2.213-2.656-2.213-3.917 0-.21-.006-1.082 1.02-1.082.837 0 1.46.627 1.626 1.292.007.03.044.041.073.003.123-.16.1-.815-.2-1.165-.031-.034.003-.095.067-.058.095.057.39.145.703.145.687 0 1.057-.378 1.057-1.006 0-.393-.135-.59-.081-.72.027-.06-.046-.104-.083-.028-.099.195-.276.704-.983.704l-1.692.003c-1.89 0-2.062 1.528-2.062 1.903 0 1.548 1.966 2.222 1.966 3.793 0 .368-.186.984-1.204.984-.418 0-.858-.12-1.123-.234 0 0-.453-2.753-1.786-3.706 0 0-1.564.759-3.11-.078-1.182-.64-1.739-1.068-2.775-.352-1.036.717-1.94 1.486-2.053 1.466l-.248-.049v-6.188c.48-.05.515.38.493.493-.026.145-.184.257.145.747.025.036.064.023.068-.018.013-.125.076-.335.244-.335.161 0 .898.555 1.526 1.184 0 0 .361-1.092 1.227-1.426-.492-.076-2.613-.59-2.613-1.518 0-.31-.35-.382-.578-.365-.01-.026-.358-.85-1.004-.42a.044.044 0 0 0 .012.08c.286.067.408.364.42.685-.619-.19-3.252-.928-6.374-.928a22.87 22.87 0 0 0-4.023.375v2.145h-.87v-1.973m-5.76 21.973c-.232-.092-.384-.241-.384-.545V82.77c-.382-.134-1.425-.532-3.506-.532-1.73 0-2.272.39-2.297.528l-.46 2.537s.7-.64 3.21-.476c3.02.192 6.152 1.975 6.152.074v-1.118c-2.369 0-2.716.753-2.716.865zm18.591-.865v1.119c0 1.9 3.13.118 6.152-.075 2.509-.164 3.21.477 3.21.477l-.461-2.537c-.025-.138-.567-.528-2.297-.528-2.08 0-3.125.398-3.505.532v1.332c0 .304-.153.452-.384.545 0-.111-.347-.865-2.715-.865zm-7.938-1.15c4.865 0 9.806.254 10.452.987.051.059.073 0 .073-.045v-2.578c0-.753-5.097-1.19-10.525-1.19-5.43 0-10.526.437-10.526 1.19l.001 2.578c0 .044.021.104.073.045.646-.733 5.587-.988 10.452-.988zm-4.34-12.16-.492-.127-.041.06-.571-.25.51-.004c.048 0 .052-.03.026-.054l-.436-.427.564.21c.037.013.051-.015.033-.04-.159-.235-.376-.551-.376-.551l.554.37c.03.021.053.002.04-.03l-.261-.646.504.476c.024.021.05.01.043-.023l-.14-.647.37.541c.023.032.05.023.051-.014l.012-.592.235.541c.016.037.044.04.063-.008l.19-.457.023.615-.083.016-.103.741c.735-.172 1.65-1.428 2.352-1.428.836 0 1.14.979 2.684.483.39.577.526 1.078.677 1.772.595.56 1.433.374 1.433-.22 0-.8-.872-.953-.872-1.787 0-.373.261-.909.973-.909.377 0 .93.162 1.247.162.378 0 .458-.273.5-.386.035-.085.138-.057.128.01-.013.077.043.186.043.365 0 .528-.768.597-.863.532-.04-.027-.068.015-.04.037.115.093.09.408-.048.608-.016.023-.038.018-.042-.003-.082-.378-.526-.845-.917-.845-.144 0-.43.084-.43.416 0 .474.952.907.952 1.891 0 1.023-1.014 1.268-2.033 1.014.035.968 1.48 1.544 1.515.851.002-.048.028-.018.043.002.215.295.116.52-.157.635.252.114.297.622.372.926.11.455.593.203.617.19.026-.016.035-.002.025.027-.183.474-.669.295-.669.295-.255.179.053.34.284.409.034.009.032.034.005.045-.17.062-.534.176-.71-.13-.131.317-.4.307-.505.307-.186 0-.31.191-.267.446.004.023-.011.03-.028.016-.444-.295-.189-.64-.01-.727-.031-.019-.337-.146-.467.212-.01.028-.027.03-.037.003-.194-.516.23-.666.534-.536-.02-.073-.18-.325-.582-.244-.018.005-.03-.003-.018-.028.065-.158.264-.391.628-.155.186.115.507-.053.536-.068-.647-1.288-1.905-.21-2.186-1.219-.005-.021-.03-.04-.047.016-.068.215-.616.23-.717-.194-.008-.033.005-.037.026-.015.08.08.253.153.48-.174.15-.216.17-.506.17-.702 0-.784-.782-2.099-2.002-2.099-.772 0-1.6.302-2.216.75l.573.131a.887.887 0 0 1-1.124.775l.09-.663c-.09.028-.314.107-.435.278-.008.014-.026.01-.03-.005-.105-.375.206-.565.302-.614.011-.007.01-.015-.01-.015a.551.551 0 0 0-.478.264c-.007.01-.019.008-.022-.001-.023-.07-.072-.263.058-.4zm1.702 4.478c-.22.268-.412.012-.7.012-.271 0-.316.227-.323.317-.001.016-.01.023-.022.006-.307-.42.036-.648.236-.678-.029-.03-.33-.232-.523.046-.015.02-.033.011-.033-.013-.01-.52.403-.557.675-.329.05-.196-.078-.329-.298-.34-.027 0-.03-.017-.02-.029.092-.1.181-.144.272-.144.29 0 .326.366.515.366.284 0 .685-.382.724-.423-.008-.022-.28-.756-.226-1.197.003-.018-.007-.02-.02-.013-.136.077-.485.074-.485-.354 0-.035.01-.037.03-.01.152.211.4-.026.523-.165.134-.149.848-1.189 1.8-1.189.21.002.48.116.698.267-.329.4-.002.784.242.735.028-.006.034.021.006.03-1.26.474-1.822.663-1.822 1.718 0 .55.188.856.511.784.025-.007.031.004.014.023a.473.473 0 0 1-.364.185c-.261 0-.308-.143-.449-.143-.145 0-.614.276-.614.507 0 .087.055.205.221.314.01.007.005.016-.004.017-.106.02-.478.052-.564-.3zm3.317-10.254c-.394-.023-.646.064-.634.19.191.202.446.18.634-.19zm-1.453.974c.278-.07.584-.037.616-.027.044.015.043.081-.007.088-.58.074-.607.341-.977.341-.244 0-.508-.245-.408-.608.012-.046.049-.047.06-.003.037.156.262.326.716.21zm-7.53 12.858c.385.492.753.03 1.257.03.245 0 .546.083.602.576.003.025.024.033.048 0 .549-.75-.077-1.174-.437-1.228.078-.07.615-.4.955.088.019.026.056.018.056-.019 0-.95-.712-1.016-1.227-.605-.097-.37.182-.614.541-.614.043 0 .059-.03.036-.054-.636-.682-1.112.175-1.22.311-.254.339-1.163-.297-1.526-.675 0 0 .803-.84.803-1.61 0-.045-.005-.11-.005-.137 0-.024.01-.033.033-.02a.62.62 0 0 0 .295.077c.184 0 .531-.058.531-.71 0-.05-.023-.047-.044-.018-.095.138-.2.168-.282.168-.648 0-2.001-2.162-3.597-2.162-.417 0-1.206.301-1.604.732.193.115.229.348.21.52-.03.274-.248.409-.47.471-.04.01-.044.039 0 .056.805.308 2.272.864 2.605 1.15.394.34.317.984.089 1.872-.221.853-.693.736-.867.708-.025-.004-.033.012-.017.032.208.263.46.35.677.35.419 0 .575-.26.792-.26.365 0 1.128.523 1.128.92 0 .224-.174.427-.399.572-.014.011-.012.028.01.032.175.03.889.09 1.027-.553zm17.634.553c.022-.004.025-.021.01-.032-.224-.145-.4-.349-.4-.571 0-.398.764-.921 1.129-.921.217 0 .373.26.792.26.217 0 .47-.087.678-.35.015-.02.007-.036-.018-.032-.174.028-.646.145-.866-.708-.228-.888-.305-1.532.089-1.872.333-.286 1.799-.842 2.605-1.15.043-.017.04-.046 0-.056-.223-.062-.44-.197-.47-.472-.02-.171.017-.404.21-.519-.398-.43-1.188-.732-1.605-.732-1.596 0-2.95 2.162-3.597 2.162-.081 0-.187-.03-.281-.168-.022-.03-.044-.032-.044.017 0 .653.346.711.53.711a.622.622 0 0 0 .296-.077c.021-.013.032-.004.032.02 0 .027-.005.092-.005.137 0 .77.804 1.61.804 1.61-.364.378-1.273 1.014-1.527.675-.108-.136-.584-.993-1.22-.311-.022.025-.006.054.037.054.358 0 .637.244.54.614-.515-.411-1.226-.345-1.226.605 0 .037.037.045.056.018.34-.488.876-.157.954-.087-.36.054-.985.477-.436 1.228.023.033.045.025.048 0 .056-.493.357-.577.601-.577.504 0 .873.463 1.257-.029.139.643.853.582 1.027.553zM21.45 66.607c-.051.07-.219-.002-.283-.032-.014-.006-.017 0-.012.011.04.09.203.36.443.36.109 0 .267-.063.312-.136 0 0 .94.305 1.405.434-.18.24-.293.53-.316.844-.374-.231-1.874-1.035-1.874-1.035l-.465.635c-.077.105-.448-.166-.371-.272l.354-.485c-.117-.125-.4-.047-.477-.024-.01.003-.02-.003-.01-.021.044-.096.22-.39.662-.258.002-.269-.4-.183-.505-.153-.013.002-.016-.003-.005-.015.108-.117.435-.38.8-.165l.16-.218-.322-.339.201-.277.226.304 1.731-2.37c.043-.059.385-.158.515-.186.014.132.028.488-.013.546l-1.702 2.392.358.118-.198.278-.424-.197zm6.07-.387c0 .217.134.536.425.444.015-.006.028-.002.025.012-.045.243-.477.465-.675.178-.175.37-.135.716.244.92.02.013.025.039 0 .056a.494.494 0 0 1-.74-.188c-.31.233-.265.732-.077.902 0 .003-.86.51-1.64.147-.517-.248-.938-.565-1.605-.513.093-.935.56-1.182 1.42-1.316.687-.111.774-.427.676-.666-.233-.062-.66.153-.66.153-.077-.129.034-.263.034-.263-.042-.052-.064-.224-.064-.224.48 0 .566-.106.566-.106.085-.5-.424-.554-.812-.284-.18-.16-.152-.372-.152-.372-.053-.026-.087-.11-.087-.146 0-.118.57-.439.716-.476.037-.165.244-.395.85-.34.071-.161-.046-.746-.12-.904-.024-.048.01-.074.063-.041.212.134.422.627.566.637 0 0 .68-.357.713-.337.033.018.129.778.129.778.09.112.615.003.845.101.058.025.056.068.004.076-.172.029-.72.265-.81.416.314.471.166 1.165.166 1.356z" fill="#fff"/></svg>
